<?xml version="1.0" standalone="no"?>
<!DOCTYPE svg PUBLIC "-//W3C//DTD SVG 20010904//EN"
 "http://www.w3.org/TR/2001/REC-SVG-20010904/DTD/svg10.dtd">
<svg version="1.0" xmlns="http://www.w3.org/2000/svg"
 width="2650.000000pt" height="956.000000pt" viewBox="0 0 2650.000000 956.000000"
 preserveAspectRatio="xMidYMid meet">

<g transform="translate(0.000000,956.000000) scale(0.100000,-0.100000)"
fill="#BC0017" stroke="none">
<path d="M5640 6064 c-19 -3 -83 -14 -143 -25 -531 -99 -813 -396 -893 -944
-20 -136 -23 -460 -5 -600 76 -596 395 -910 1008 -990 131 -17 415 -20 548 -5
553 62 884 322 999 786 43 175 51 246 50 499 0 260 -11 359 -60 530 -116 407
-394 640 -871 731 -64 12 -157 17 -343 19 -140 2 -271 1 -290 -1z m408 -719
c77 -18 112 -36 163 -82 93 -84 128 -196 136 -433 12 -388 -81 -570 -319 -621
-83 -18 -272 -6 -341 21 -111 44 -182 133 -224 281 -25 91 -26 432 0 533 44
173 123 258 280 301 69 18 226 18 305 0z"/>
<path d="M8570 6063 c-107 -11 -279 -46 -364 -73 -137 -44 -217 -82 -326 -155
-257 -171 -411 -431 -465 -785 -20 -126 -19 -415 0 -545 89 -589 482 -931
1157 -1004 125 -14 431 -14 556 0 131 14 275 44 388 80 l94 30 0 366 c0 343
-1 365 -17 360 -10 -3 -70 -24 -133 -46 -183 -64 -288 -82 -500 -88 -158 -4
-199 -2 -280 15 -222 46 -347 153 -406 347 -14 46 -19 94 -19 205 0 154 10
214 52 309 92 210 340 308 706 280 219 -16 394 -59 595 -146 9 -4 12 72 12
360 l0 365 -57 20 c-231 83 -428 113 -741 110 -119 0 -233 -3 -252 -5z"/>
<path d="M20437 6059 c-389 -45 -678 -198 -843 -445 -142 -213 -199 -455 -198
-844 1 -300 31 -479 113 -669 137 -319 401 -507 824 -588 133 -25 611 -25 744
0 475 90 752 320 872 722 76 256 90 655 31 955 -99 511 -417 791 -983 865
-126 16 -438 19 -560 4z m412 -714 c210 -50 294 -187 308 -505 19 -444 -115
-640 -442 -643 -336 -3 -467 161 -467 583 0 354 86 510 310 564 77 19 212 19
291 1z"/>
<path d="M2130 5262 l0 -780 53 -30 c56 -32 97 -83 117 -144 l12 -38 61 0 c34
-1 81 -4 103 -9 l42 -8 207 239 c114 132 205 241 203 243 -1 1 -29 17 -61 35
-32 18 -61 39 -64 46 -3 8 0 37 7 64 7 28 9 54 6 57 -12 12 -142 -19 -199 -48
l-57 -29 6 28 c23 94 69 171 131 220 54 42 136 81 196 93 49 10 55 15 96 76
95 140 259 289 401 367 84 45 195 87 214 80 19 -7 36 -86 42 -204 10 -169 -33
-371 -117 -547 l-39 -83 21 -62 c30 -89 24 -210 -13 -290 -24 -52 -101 -148
-118 -148 -4 0 -10 35 -12 78 -3 49 -13 96 -28 130 l-23 52 -43 -40 c-24 -22
-48 -40 -53 -40 -6 0 -37 16 -70 35 -32 19 -63 35 -68 35 -4 0 -56 -139 -114
-308 l-106 -307 22 -30 c13 -16 32 -48 43 -71 18 -36 27 -42 79 -57 32 -8 79
-30 106 -48 48 -32 123 -125 133 -166 4 -13 10 -20 15 -17 19 12 118 5 155
-11 22 -9 57 -34 79 -56 l41 -39 435 2 436 3 -182 371 c-134 273 -193 384
-223 416 l-41 44 63 42 c166 109 302 295 358 489 20 68 23 99 22 243 -1 143
-5 178 -28 265 -73 280 -243 477 -489 567 -164 60 -172 60 -999 65 l-758 5 0
-780z"/>
<path d="M9800 4785 l0 -1255 420 0 420 0 0 343 0 344 100 116 c55 63 104 118
109 121 5 4 135 -203 288 -458 l278 -465 443 -1 443 0 -37 58 c-32 49 -207
326 -765 1208 l-127 202 464 517 c255 284 464 518 464 521 0 2 -213 4 -472 4
l-473 0 -355 -395 -355 -394 -5 392 -5 392 -417 3 -418 2 0 -1255z"/>
<path d="M12480 4785 l0 -1255 975 0 975 0 0 310 0 310 -555 0 -555 0 0 155 0
155 485 0 485 0 -2 318 -3 317 -482 3 -483 2 0 160 0 160 555 0 555 0 0 310 0
310 -975 0 -975 0 0 -1255z"/>
<path d="M14615 6027 c-3 -7 -4 -145 -3 -307 l3 -295 333 -3 332 -2 0 -945 0
-945 420 0 420 0 0 945 0 945 338 2 337 3 0 305 0 305 -1088 3 c-870 2 -1089
0 -1092 -11z"/>
<path d="M16977 6034 c-4 -4 -7 -569 -7 -1256 l0 -1248 804 0 c852 0 891 2
1027 49 245 84 397 242 461 479 28 103 30 317 5 412 -34 126 -104 212 -238
291 l-66 40 67 67 c79 79 129 174 155 296 21 95 16 297 -10 391 -66 243 -238
394 -520 458 -85 19 -131 20 -880 24 -435 3 -793 1 -798 -3z m1293 -590 c72
-21 113 -64 130 -133 16 -66 1 -147 -36 -190 -49 -58 -84 -65 -351 -69 l-243
-4 0 206 0 206 223 0 c176 0 235 -3 277 -16z m63 -952 c68 -34 97 -87 97 -178
0 -93 -28 -149 -90 -184 -44 -25 -49 -25 -307 -28 l-263 -3 0 211 0 211 258
-3 c246 -3 259 -4 305 -26z"/>
<path d="M22190 5730 l0 -310 335 0 335 0 0 -945 0 -945 420 0 420 0 0 945 0
945 335 0 335 0 0 310 0 310 -1090 0 -1090 0 0 -310z"/>
<path d="M3207 5266 c-48 -18 -76 -42 -93 -83 -45 -105 27 -213 141 -213 95 0
160 70 152 163 -9 101 -107 166 -200 133z"/>
</g>
</svg>
